<?xml version="1.0" standalone="no"?>
<!DOCTYPE svg PUBLIC "-//W3C//DTD SVG 20010904//EN"
 "http://www.w3.org/TR/2001/REC-SVG-20010904/DTD/svg10.dtd">
<svg version="1.0" xmlns="http://www.w3.org/2000/svg"
 width="1080.000000pt" height="720.000000pt" viewBox="0 0 1080.000000 720.000000"
 preserveAspectRatio="xMidYMid meet">
<metadata>
Created by potrace 1.15, written by Peter Selinger 2001-2017
</metadata>
<g transform="translate(0.000000,720.000000) scale(0.100000,-0.100000)"
fill="#000000" stroke="none">
<path d="M5192 6748 l-2 -48 -49 0 c-70 0 -81 6 -81 46 0 32 -1 33 -26 24 -36
-14 -94 -60 -94 -75 0 -7 -6 -18 -14 -25 -8 -6 -16 -24 -18 -38 -2 -22 -9 -28
-34 -30 -21 -2 -34 -10 -37 -21 -2 -10 -26 -32 -53 -47 -27 -16 -61 -41 -76
-56 -15 -16 -32 -28 -38 -28 -5 0 -10 -4 -10 -9 0 -5 -9 -13 -20 -16 -14 -4
-20 -15 -20 -34 0 -18 -12 -38 -33 -60 -56 -53 -81 -115 -85 -206 -2 -44 -8
-84 -13 -89 -5 -6 -9 -19 -9 -31 0 -12 -20 -52 -45 -89 -24 -38 -48 -85 -51
-105 -8 -40 -56 -120 -107 -178 -36 -40 -110 -183 -96 -183 5 0 9 -25 9 -55 0
-30 -4 -55 -9 -55 -5 0 -4 -20 1 -46 13 -60 5 -211 -16 -304 -24 -102 -22
-161 10 -277 15 -54 30 -127 34 -163 9 -70 24 -125 39 -143 25 -32 51 -140 51
-219 1 -46 6 -103 11 -128 6 -25 13 -61 15 -80 3 -19 10 -45 16 -57 16 -33 83
-73 120 -73 18 0 38 -4 44 -8 9 -6 22 -63 45 -196 4 -27 15 -56 22 -65 8 -9
27 -43 43 -76 28 -60 94 -153 120 -168 22 -13 34 -76 34 -185 0 -89 -2 -103
-17 -108 -77 -26 -135 -66 -223 -153 -93 -93 -150 -156 -150 -165 0 -3 -18
-31 -40 -62 -43 -62 -78 -79 -205 -101 -92 -16 -267 -67 -295 -86 -14 -9 -41
-42 -60 -73 -51 -82 -131 -193 -197 -275 -32 -39 -101 -133 -153 -208 -52 -75
-102 -146 -110 -157 -8 -11 -40 -32 -70 -47 -79 -38 -214 -139 -321 -237 -51
-46 -134 -120 -186 -164 -60 -50 -100 -92 -109 -115 -115 -265 -212 -595 -264
-890 -6 -35 -16 -72 -21 -82 -5 -11 -14 -28 -19 -39 -6 -11 -10 -28 -10 -37 0
-10 -7 -31 -15 -47 -8 -15 -15 -37 -15 -48 0 -11 -5 -28 -10 -39 -11 -19 -3
-19 400 -19 402 0 410 0 410 20 0 49 91 319 108 320 6 0 12 11 12 25 0 13 5
47 11 75 l11 50 53 0 53 0 7 -74 c11 -120 -5 -276 -41 -398 -5 -17 112 -18
2365 -18 1574 0 2371 3 2371 10 0 6 -9 10 -20 10 -17 0 -20 7 -20 40 0 32 -4
40 -19 40 -21 0 -31 34 -31 106 l0 44 54 0 c51 0 54 -1 60 -30 4 -21 11 -30
26 -30 18 0 20 -6 20 -55 0 -48 2 -55 20 -55 17 0 20 -7 20 -40 l0 -40 511 0
511 0 -7 48 c-4 26 -13 67 -21 92 -16 53 -37 123 -57 200 -9 30 -30 102 -48
160 -17 58 -51 173 -75 255 -24 83 -49 159 -56 170 -6 11 -31 58 -56 105 -24
47 -47 87 -51 90 -3 3 -20 23 -37 45 -38 50 -57 117 -52 189 l3 55 -40 18
c-22 10 -42 21 -45 24 -3 4 -30 18 -60 31 -30 14 -80 49 -111 79 -92 89 -200
168 -279 205 -42 19 -47 25 -58 73 -22 94 -48 135 -159 247 -127 128 -241 234
-253 234 -5 0 -10 3 -12 8 -6 13 -91 68 -143 91 -84 39 -190 69 -270 76 -56 6
-84 13 -103 29 -57 46 -171 125 -210 145 -42 22 -92 68 -92 86 0 13 -65 109
-128 187 -28 35 -112 124 -187 198 -76 74 -141 145 -146 158 -11 27 -11 86 -3
171 6 55 9 62 33 68 56 14 126 73 86 73 -17 0 -23 29 -31 167 -8 132 -3 143
62 143 l44 0 0 103 c1 119 14 147 72 147 28 0 35 5 50 38 10 20 23 62 29 92 6
30 24 79 40 109 17 33 29 70 29 92 0 21 4 40 9 43 5 4 12 41 16 84 5 54 13 83
26 97 16 18 19 40 21 155 1 90 -2 142 -10 157 -7 12 -12 50 -12 86 0 55 -3 67
-25 87 -14 13 -25 28 -25 33 0 6 -15 28 -33 51 -57 70 -97 159 -97 215 0 38
-32 125 -50 136 -13 8 -13 125 0 125 37 0 -26 67 -97 103 -17 9 -38 25 -45 35
-7 10 -21 21 -31 25 -9 4 -22 18 -27 32 -5 14 -14 25 -20 25 -5 0 -10 7 -10
15 0 8 -9 19 -20 25 -15 8 -20 21 -20 51 0 26 -5 42 -15 45 -10 4 -15 20 -15
44 0 35 -4 40 -67 82 -92 60 -119 68 -211 62 -97 -8 -132 4 -132 44 0 33 -22
57 -68 73 -18 6 -32 14 -32 17 0 4 -44 6 -99 4 l-99 -3 -6 45 c-4 26 -14 58
-22 74 -7 15 -14 33 -14 40 0 6 -3 12 -8 12 -4 0 -12 10 -17 22 -8 18 -22 25
-62 31 -29 5 -53 13 -53 18 0 5 -13 9 -29 9 -42 0 -61 10 -71 35 -5 12 -18 25
-29 28 -19 5 -21 1 -21 -34 l0 -39 -54 0 -55 0 -4 53 -3 52 -2 -47z m-92 -173
c0 -42 -3 -55 -15 -55 -8 0 -15 -7 -15 -15 0 -13 -13 -15 -72 -13 l-73 3 -3
58 -3 57 36 0 c19 0 35 5 35 10 0 6 25 10 55 10 l55 0 0 -55z m314 -15 c24 -9
26 -15 26 -64 0 -30 -4 -58 -10 -61 -5 -3 -10 -19 -10 -36 l0 -29 -64 0 c-93
0 -96 2 -96 71 0 33 4 59 10 59 6 0 10 16 10 35 l0 35 54 0 c30 0 66 -4 80
-10z m-464 -175 l0 -55 -45 0 c-38 0 -45 -3 -45 -20 0 -18 -7 -20 -55 -20
l-55 0 0 55 0 55 45 0 c38 0 45 3 45 20 0 18 7 20 55 20 l55 0 0 -55z m0 -260
c0 -42 -3 -55 -15 -55 -8 0 -15 -9 -15 -20 0 -18 -7 -20 -60 -20 l-60 0 0 55
c0 48 2 55 20 55 13 0 20 7 20 20 0 18 7 20 55 20 l55 0 0 -55z m1060 -158 c0
-58 -4 -77 -18 -90 -16 -15 -75 -31 -147 -40 -16 -2 8 -5 56 -6 93 -1 137 -15
141 -46 2 -13 12 -21 31 -23 24 -3 27 0 27 29 l0 32 98 -7 c61 -5 103 -13 113
-22 8 -8 24 -14 34 -14 10 0 33 -11 52 -26 30 -23 33 -30 33 -79 0 -32 -6 -59
-14 -67 -7 -8 -16 -48 -20 -93 l-7 -80 48 -25 c59 -30 63 -35 63 -88 0 -29 7
-50 20 -64 15 -16 20 -36 20 -75 l0 -53 -35 0 -35 0 0 -48 c0 -44 -17 -86 -44
-104 -6 -4 -48 -8 -93 -8 l-83 0 0 -66 0 -67 -77 8 c-43 4 -107 8 -143 9 l-65
1 -3 -31 c-3 -32 -3 -32 61 -43 35 -6 78 -11 95 -11 27 0 32 -4 32 -24 0 -23
2 -24 29 -13 17 6 32 21 35 32 5 21 14 23 131 29 156 9 167 4 218 -94 16 -30
17 -49 11 -143 -5 -91 -9 -109 -25 -118 -10 -5 -19 -18 -19 -28 0 -28 -30 -81
-46 -81 -9 0 -14 -11 -14 -30 0 -18 -6 -33 -15 -36 -8 -4 -15 -15 -15 -25 0
-11 -11 -37 -25 -59 -14 -22 -25 -44 -25 -50 0 -5 -4 -10 -10 -10 -5 0 -10
-11 -10 -25 0 -22 -4 -25 -34 -25 -30 0 -36 -4 -50 -40 -9 -22 -16 -46 -16
-53 0 -20 -44 -107 -55 -107 -15 0 -45 -58 -45 -88 0 -49 -12 -72 -39 -79 -14
-3 -32 -15 -39 -25 -19 -26 -136 -26 -151 -1 -8 15 -25 18 -120 18 -61 0 -106
-1 -101 -3 6 -2 10 -12 10 -23 0 -10 5 -19 10 -19 6 0 10 5 10 10 0 6 27 10
60 10 33 0 60 -4 60 -10 0 -6 28 -10 64 -10 39 0 68 -5 72 -12 4 -6 9 -46 12
-87 l4 -76 -41 -12 c-50 -16 -131 -17 -131 -2 0 6 -7 17 -15 25 -8 9 -15 30
-16 47 0 18 -3 26 -6 20 -3 -8 -25 -13 -59 -13 -47 0 -54 2 -54 20 0 23 -18
27 -26 5 -4 -9 -19 -15 -36 -15 -17 0 -59 -5 -93 -12 -92 -16 -231 5 -274 43
-27 23 -31 33 -31 79 l0 53 108 -7 c59 -4 114 -7 122 -6 8 1 65 5 125 9 61 4
101 8 90 9 -12 1 -25 6 -30 11 -13 12 -67 17 -82 8 -7 -5 -44 -11 -83 -14 -52
-4 -74 -2 -86 8 -21 17 -166 17 -172 0 -2 -6 -28 -11 -58 -11 l-54 0 0 50 c0
42 -3 50 -19 50 -27 0 -81 -21 -81 -31 0 -5 -6 -9 -14 -9 -8 0 -16 -5 -18 -11
-2 -5 -38 -13 -81 -16 l-77 -6 0 77 c0 61 -3 76 -15 76 -8 0 -15 9 -15 20 0
11 -7 23 -15 26 -10 4 -15 19 -15 43 0 25 -6 40 -19 48 -10 6 -22 28 -25 47
-4 22 -13 36 -21 36 -10 0 -15 11 -15 35 0 32 -2 35 -30 35 -28 0 -30 2 -30
40 0 36 -2 40 -25 40 -21 0 -25 5 -25 29 0 47 -24 90 -61 110 -39 21 -57 69
-58 158 -1 47 3 56 34 88 20 19 42 35 50 35 8 0 15 5 15 10 0 6 7 10 15 10 8
0 15 9 15 20 0 18 7 20 54 20 57 0 66 -7 66 -56 0 -24 3 -25 53 -22 l52 3 3
45 c4 53 12 60 74 60 57 0 95 16 104 43 9 30 -12 37 -113 37 -55 0 -93 4 -93
10 0 6 -7 10 -15 10 -13 0 -15 11 -13 57 3 49 6 58 23 62 11 2 22 7 26 12 6
11 99 29 148 29 56 0 113 -19 118 -40 3 -10 13 -20 24 -23 15 -4 19 -14 19
-51 0 -25 4 -46 8 -46 5 0 15 -11 22 -25 15 -28 38 -33 46 -10 5 11 23 15 72
15 l65 0 -6 91 c-8 106 -14 121 -63 144 -20 9 -39 26 -41 36 -4 13 -14 19 -33
19 -16 0 -35 6 -42 13 -40 38 -88 46 -195 33 l-73 -8 0 -53 c0 -30 -5 -57 -11
-61 -6 -3 -53 -3 -105 1 -85 6 -97 10 -125 36 -22 21 -41 29 -67 29 l-35 0 6
78 c7 85 25 142 44 142 8 0 13 14 13 39 0 22 6 46 13 53 7 7 20 28 28 46 7 17
17 32 21 32 5 0 8 5 8 11 0 12 25 39 37 39 11 0 48 60 56 90 3 14 16 30 29 35
13 6 27 20 33 33 5 12 15 22 22 22 7 0 13 9 13 20 0 18 7 20 55 20 52 0 55 -1
55 -25 0 -18 5 -25 20 -25 13 0 20 -7 20 -20 0 -13 7 -20 20 -20 21 0 40 27
40 59 0 18 6 21 45 21 33 0 45 4 45 15 0 8 5 15 10 15 6 0 10 13 10 29 0 39
14 47 93 56 44 4 70 12 74 21 3 8 18 14 34 14 18 0 29 5 29 14 0 7 10 16 23
20 29 8 126 8 166 0 29 -6 31 -9 31 -51 0 -37 3 -44 16 -39 9 3 36 6 60 6 44
0 44 0 44 36 0 42 9 52 79 87 42 21 70 27 118 27 l63 0 0 -73z m-186 -2541
c16 -19 33 -26 70 -28 l49 -3 16 -52 c11 -38 20 -53 33 -53 15 0 18 -9 18 -55
0 -52 -1 -55 -25 -55 -18 0 -25 -5 -25 -20 0 -18 -7 -20 -60 -20 -33 0 -60 4
-60 10 0 6 -7 10 -15 10 -8 0 -15 -5 -15 -12 0 -6 -10 -22 -22 -35 -17 -19
-32 -23 -78 -23 -44 0 -59 -4 -70 -20 -11 -15 -26 -20 -65 -20 -28 0 -56 5
-62 11 -6 6 -65 13 -132 16 -119 6 -121 6 -121 29 0 21 -5 24 -35 24 -19 0
-35 5 -35 10 0 6 -9 10 -20 10 -12 0 -22 9 -26 24 -5 21 -13 25 -47 28 l-42 3
0 65 c0 36 4 77 8 91 10 39 53 53 129 44 80 -10 377 -7 403 4 11 5 31 13 45
19 44 18 54 20 109 21 45 1 57 -3 75 -23z"/>
<path d="M5903 5243 c-13 -8 -23 -23 -23 -32 -1 -21 -36 -46 -77 -54 -36 -7
-73 -39 -73 -62 0 -8 -6 -15 -13 -15 -22 0 -55 -144 -39 -168 8 -12 15 -11 40
2 17 9 42 16 57 16 20 0 25 5 25 25 0 15 6 25 14 25 8 0 18 9 21 20 3 11 13
20 21 20 8 0 14 10 14 24 0 19 6 24 38 30 20 3 54 6 75 6 37 0 38 0 23 22 -11
15 -16 45 -16 90 l0 68 -32 -1 c-18 0 -43 -7 -55 -16z"/>
<path d="M5240 4320 c-1 -25 -1 -91 0 -147 1 -79 -2 -108 -14 -125 -20 -28
-21 -58 -1 -58 11 0 15 -12 15 -50 0 -37 4 -50 14 -50 8 0 18 5 21 10 3 6 46
10 96 10 53 0 89 4 89 10 0 6 6 10 13 10 7 0 21 17 32 37 25 46 61 83 81 83
19 0 77 29 86 44 4 6 8 29 8 51 0 22 6 51 13 65 7 14 11 35 9 46 l-3 22 -47
-25 c-44 -24 -54 -25 -157 -20 -67 3 -111 9 -113 16 -2 6 -13 11 -25 11 -12 0
-28 9 -35 20 -7 12 -24 25 -38 30 -13 5 -29 20 -34 32 -7 19 -9 16 -10 -22z"/>
</g>
</svg>
