<?xml version="1.0" standalone="no"?>
<!DOCTYPE svg PUBLIC "-//W3C//DTD SVG 20010904//EN"
 "http://www.w3.org/TR/2001/REC-SVG-20010904/DTD/svg10.dtd">
<svg version="1.0" xmlns="http://www.w3.org/2000/svg"
 width="1080.000000pt" height="720.000000pt" viewBox="0 0 1080.000000 720.000000"
 preserveAspectRatio="xMidYMid meet">
<metadata>
Created by potrace 1.15, written by Peter Selinger 2001-2017
</metadata>
<g transform="translate(0.000000,720.000000) scale(0.100000,-0.100000)"
fill="#000000" stroke="none">
<path d="M0 3600 l0 -3600 5400 0 5400 0 0 3600 0 3600 -5400 0 -5400 0 0
-3600z m10779 3576 c8 -10 10 -953 9 -3587 l-3 -3574 -791 -3 c-626 -2 -794 1
-801 10 -6 7 -17 42 -26 78 -8 36 -22 90 -31 120 -10 30 -21 71 -26 90 -21 86
-43 163 -77 265 -19 61 -50 162 -68 225 -36 126 -113 284 -177 362 -48 58 -72
134 -65 206 l6 53 -47 24 c-26 13 -74 37 -107 53 -33 17 -80 51 -105 76 -55
56 -179 149 -262 196 -59 34 -62 37 -78 95 -9 33 -24 75 -33 93 -29 54 -320
339 -413 405 -113 78 -251 130 -378 142 -80 8 -81 9 -210 102 -47 34 -103 71
-125 82 -38 20 -81 64 -81 83 0 34 -154 219 -314 378 -88 87 -140 147 -147
168 -7 22 -9 64 -4 118 6 80 8 84 33 91 41 10 90 42 97 63 4 11 -2 31 -14 47
-15 22 -21 52 -26 136 -8 127 -3 137 61 137 l44 0 0 102 c0 91 2 104 22 125
13 14 33 23 52 23 26 0 34 6 48 38 10 20 23 62 29 92 6 30 24 79 40 109 17 33
29 70 29 92 0 21 4 40 9 43 5 4 12 41 16 84 5 54 13 83 26 97 16 18 19 41 21
170 2 104 -1 157 -10 172 -6 12 -12 47 -12 78 0 42 -5 64 -20 83 -112 147
-160 241 -160 314 0 27 -10 59 -30 95 -30 52 -42 133 -20 133 6 0 10 11 10 24
0 24 -56 78 -110 106 -14 7 -35 22 -47 34 -12 12 -26 26 -32 31 -40 37 -91
118 -91 143 0 16 -7 35 -15 42 -8 7 -15 27 -15 46 0 30 -7 38 -61 74 -94 65
-120 72 -213 65 -93 -7 -129 5 -134 45 -9 62 -73 92 -196 94 -99 1 -95 -2
-121 86 -9 30 -27 71 -40 91 -20 30 -31 38 -69 43 -25 4 -48 11 -51 17 -4 5
-20 9 -36 9 -21 0 -40 11 -65 35 -19 19 -44 35 -54 35 -15 0 -20 7 -20 25 0
27 -2 28 -49 19 -44 -9 -40 -32 7 -36 36 -3 37 -4 37 -43 0 -36 -3 -40 -28
-43 -39 -5 -57 14 -57 59 0 57 -28 53 -32 -3 -3 -40 -5 -43 -35 -46 -47 -5
-73 13 -73 49 0 29 -2 31 -28 24 -34 -8 -103 -55 -110 -75 -3 -8 -11 -22 -18
-30 -7 -8 -14 -26 -16 -40 -2 -20 -10 -26 -34 -28 -21 -2 -34 -10 -37 -21 -2
-10 -26 -32 -53 -47 -27 -16 -61 -41 -76 -56 -15 -16 -32 -28 -38 -28 -5 0
-10 -4 -10 -9 0 -5 -9 -13 -20 -16 -14 -4 -20 -15 -20 -34 0 -18 -12 -38 -33
-60 -56 -53 -81 -115 -85 -206 -2 -44 -8 -84 -13 -89 -5 -6 -9 -19 -9 -31 0
-12 -20 -52 -45 -89 -24 -38 -48 -85 -51 -105 -8 -40 -56 -120 -107 -178 -47
-53 -113 -191 -98 -206 14 -14 14 -70 0 -84 -7 -7 -7 -28 1 -71 15 -73 9 -180
-15 -282 -25 -105 -22 -187 10 -305 15 -55 31 -129 36 -165 9 -75 17 -107 35
-135 31 -49 54 -146 54 -227 1 -46 5 -101 10 -123 5 -22 12 -53 15 -70 3 -16
8 -40 11 -53 6 -31 80 -82 119 -82 49 0 60 -17 79 -125 22 -121 82 -248 164
-350 65 -81 72 -103 72 -218 0 -75 -3 -88 -17 -93 -77 -26 -135 -66 -223 -153
-93 -93 -150 -156 -150 -165 0 -3 -18 -31 -40 -62 -43 -62 -78 -79 -205 -101
-92 -16 -267 -67 -295 -86 -14 -9 -41 -42 -60 -73 -51 -82 -131 -193 -197
-275 -32 -39 -101 -133 -153 -208 -52 -75 -102 -146 -110 -157 -8 -11 -40 -32
-70 -47 -79 -38 -214 -139 -321 -237 -51 -46 -134 -120 -186 -164 -60 -50
-100 -92 -109 -115 -115 -265 -212 -595 -264 -890 -6 -35 -16 -72 -21 -82 -5
-11 -13 -28 -19 -39 -5 -11 -10 -28 -10 -37 0 -10 -7 -31 -15 -47 -8 -15 -15
-37 -15 -48 0 -11 -5 -28 -10 -39 -10 -19 -34 -19 -1123 -19 -852 0 -1116 3
-1125 12 -9 9 -12 819 -12 3583 0 1965 3 3575 7 3578 3 4 2424 7 5378 7 4506
0 5374 -2 5384 -14z m-5701 -568 c17 -17 15 -67 -3 -74 -8 -4 -15 -12 -15 -20
0 -10 -14 -14 -54 -14 -62 0 -79 14 -74 62 3 28 7 33 33 36 17 2 34 8 40 13
13 13 59 11 73 -3z m337 -68 c16 -14 21 -80 6 -95 -5 -6 -11 -21 -13 -35 -3
-22 -8 -25 -50 -28 -69 -4 -88 9 -88 63 0 25 5 45 10 45 6 0 10 13 10 28 0 16
3 32 8 36 11 12 99 1 117 -14z m-486 -124 c7 -8 11 -27 9 -43 -3 -25 -7 -28
-44 -31 -32 -2 -43 -8 -47 -23 -4 -13 -14 -19 -35 -19 -37 0 -54 20 -50 57 3
25 7 28 44 31 32 2 43 8 47 23 6 23 58 27 76 5z m1059 -398 c19 -19 15 -112
-6 -131 -19 -18 -90 -36 -139 -37 -23 0 -33 -5 -33 -15 0 -12 16 -15 86 -15
86 0 87 0 120 -35 43 -46 91 -50 96 -7 l3 27 80 -3 c44 -2 89 -9 100 -16 11
-7 32 -16 46 -19 46 -12 79 -51 79 -96 0 -22 -6 -46 -14 -53 -8 -9 -16 -50
-21 -105 l-7 -92 50 -25 c54 -27 62 -40 62 -92 0 -20 9 -47 21 -63 14 -19 19
-39 17 -62 -3 -30 -7 -34 -35 -37 -32 -3 -33 -5 -33 -50 0 -44 -18 -86 -44
-104 -6 -4 -48 -8 -93 -8 l-82 0 -3 -62 -3 -63 -60 4 c-33 2 -96 5 -140 5
l-80 1 -3 -42 c-3 -47 -5 -46 119 -62 48 -6 56 -10 76 -49 5 -11 71 24 79 42
8 19 21 22 118 29 132 9 156 -1 199 -82 27 -51 28 -57 21 -147 -6 -78 -10 -97
-25 -105 -11 -5 -19 -18 -19 -28 0 -28 -30 -81 -46 -81 -9 0 -14 -11 -14 -30
0 -18 -6 -33 -15 -36 -8 -4 -15 -15 -15 -25 0 -11 -11 -37 -25 -59 -14 -22
-25 -44 -25 -50 0 -5 -4 -10 -9 -10 -5 0 -11 -10 -13 -22 -2 -18 -11 -24 -35
-26 -26 -3 -34 -10 -47 -43 -9 -22 -16 -45 -16 -52 0 -20 -44 -107 -55 -107
-15 0 -45 -58 -45 -88 0 -49 -12 -72 -39 -79 -14 -3 -32 -15 -39 -25 -18 -24
-98 -25 -125 0 -16 14 -38 17 -128 17 -66 0 -113 4 -117 11 -16 24 -135 53
-146 36 -13 -21 -113 -25 -158 -7 -34 13 -59 15 -115 10 -40 -4 -73 -11 -73
-16 0 -13 -64 -11 -78 3 -7 7 -12 29 -12 50 0 35 -2 38 -29 38 -35 0 -91 -19
-91 -31 0 -5 -7 -9 -15 -9 -8 0 -15 -4 -15 -9 0 -5 -25 -13 -55 -16 -74 -10
-85 1 -85 77 0 52 -4 65 -30 98 -19 24 -30 49 -30 69 0 19 -6 34 -15 37 -8 3
-19 23 -25 44 -6 21 -17 43 -25 50 -8 7 -15 23 -15 36 0 16 -6 24 -18 24 -25
0 -42 20 -42 50 0 17 -8 29 -22 35 -14 6 -24 21 -26 35 -6 48 -24 79 -58 99
-39 24 -52 51 -61 131 -5 55 -5 58 31 93 20 21 43 37 51 37 8 0 15 5 15 10 0
6 6 10 14 10 7 0 16 9 19 20 4 15 14 20 41 20 38 0 56 -20 56 -60 0 -19 5 -21
63 -18 l62 3 3 45 c4 53 12 60 74 60 59 0 97 17 104 47 12 47 2 53 -99 53 -86
0 -95 2 -116 24 -29 31 -26 89 4 95 11 2 23 7 26 12 9 15 120 31 166 24 61 -9
123 -66 123 -112 0 -66 67 -118 100 -78 9 10 31 15 73 15 l60 0 -6 106 c-6
115 -14 132 -67 154 -16 7 -32 21 -35 31 -4 11 -16 19 -27 19 -11 0 -36 9 -54
21 -58 35 -92 40 -191 28 l-92 -12 -3 -56 -3 -56 -85 3 c-84 3 -124 17 -143
49 -4 7 -21 13 -36 13 -43 0 -55 21 -47 83 9 68 27 117 43 117 8 0 13 14 13
39 0 22 6 46 13 53 7 7 20 28 28 46 7 17 17 32 21 32 5 0 8 5 8 11 0 12 25 39
37 39 11 0 48 60 56 90 3 14 16 30 29 35 13 6 27 20 33 33 5 12 15 22 21 22 7
0 14 9 17 21 4 16 12 20 38 17 18 -2 37 -11 43 -22 43 -74 103 -87 122 -26 10
32 15 35 53 38 28 2 41 8 41 18 0 8 5 14 10 14 6 0 10 13 10 29 0 39 14 47 92
56 38 3 72 13 79 21 6 8 22 14 35 14 14 0 24 6 24 15 0 29 150 34 185 5 8 -7
15 -28 15 -47 0 -34 1 -35 31 -29 17 3 49 6 70 6 38 0 39 1 39 36 0 42 9 52
79 87 58 29 128 36 149 15z m-523 -2329 c17 1 76 4 131 7 l102 5 13 -30 c14
-30 42 -41 54 -21 3 6 24 10 45 10 21 0 42 -4 45 -10 3 -5 32 -10 64 -10 72 0
81 -10 88 -89 l6 -60 -38 -15 c-58 -25 -89 -21 -119 15 -14 17 -26 41 -26 55
0 15 -6 24 -15 24 -8 0 -15 -4 -15 -10 0 -5 -16 -10 -35 -10 -24 0 -39 6 -47
20 -15 24 -46 26 -54 5 -4 -9 -20 -15 -43 -15 -20 0 -56 -5 -81 -11 -33 -8
-68 -7 -135 2 -74 11 -95 19 -122 42 -25 22 -33 37 -33 61 0 18 3 36 8 40 4 5
45 5 92 1 47 -4 99 -7 115 -6z m345 -274 c18 -19 34 -25 66 -25 46 0 54 -7 73
-65 8 -22 23 -46 33 -53 27 -20 21 -76 -8 -80 -12 -2 -24 -12 -27 -23 -4 -15
-14 -19 -45 -19 -23 0 -44 5 -47 10 -9 14 -55 13 -55 -2 0 -6 -10 -22 -22 -35
-17 -19 -32 -23 -78 -23 -44 0 -59 -4 -70 -20 -16 -22 -68 -27 -102 -9 -11 6
-71 14 -132 18 -102 6 -112 8 -121 29 -6 13 -19 22 -31 22 -32 0 -82 28 -89
50 -5 15 -15 20 -39 20 -48 0 -60 20 -52 84 3 30 9 61 12 69 10 26 60 40 112
31 59 -10 390 -6 417 5 11 5 31 13 45 19 42 18 54 20 96 21 31 1 46 -5 64 -24z
m-2489 -2952 c17 -20 17 -266 0 -330 -6 -24 -16 -61 -21 -83 l-11 -40 -83 0
c-55 0 -87 4 -94 13 -7 8 -4 35 13 92 43 143 70 215 81 215 6 0 14 25 18 56 3
31 11 65 17 75 12 24 61 25 80 2z m4725 -251 c6 -13 21 -30 33 -38 15 -11 21
-26 21 -55 0 -30 6 -46 22 -58 30 -25 18 -51 -23 -51 -43 0 -89 35 -89 67 0
13 -9 32 -20 41 -22 18 -37 80 -26 107 9 25 68 16 82 -13z"/>
<path d="M5893 5253 c-13 -8 -23 -21 -23 -27 0 -20 -43 -53 -77 -59 -32 -6
-73 -38 -73 -57 0 -5 -6 -13 -13 -17 -16 -10 -38 -80 -44 -145 -6 -58 11 -69
63 -44 19 9 46 16 59 16 20 0 25 5 25 25 0 15 6 25 14 25 8 0 18 9 21 20 3 11
12 20 20 20 7 0 15 10 17 22 3 26 31 36 101 37 51 1 56 9 32 51 -8 14 -14 52
-15 88 l0 62 -42 -1 c-24 0 -53 -7 -65 -16z"/>
<path d="M5228 4328 c-1 -24 0 -89 2 -145 2 -80 -1 -106 -14 -124 -20 -29 -21
-73 -1 -89 9 -7 15 -29 15 -51 0 -35 3 -39 24 -39 14 0 28 5 31 10 3 6 46 10
96 10 53 0 89 4 89 10 0 6 6 10 13 10 7 0 21 17 32 37 22 42 63 82 83 83 18 0
75 30 84 44 4 6 8 29 8 51 0 22 7 53 15 69 15 29 12 86 -4 86 -5 0 -30 -12
-57 -26 -46 -25 -55 -26 -143 -21 -51 3 -98 10 -104 16 -6 6 -17 11 -25 11 -8
0 -30 14 -49 30 -18 17 -38 30 -43 30 -5 0 -12 9 -15 20 -12 37 -35 23 -37
-22z"/>
</g>
</svg>
